<?xml version="1.0" encoding="utf-8"?>
<!-- Generator: Adobe Illustrator 19.0.0, SVG Export Plug-In . SVG Version: 6.00 Build 0)  -->
<svg version="1.1" id="layer" xmlns="http://www.w3.org/2000/svg" xmlns:xlink="http://www.w3.org/1999/xlink" x="0px" y="0px"
	 viewBox="-153 -46 652 652" style="enable-background:new -153 -46 652 652;" xml:space="preserve">
<g transform="translate(0.000000,521.000000) scale(0.0500000,-0.0500000)">
	<path d="M-1630.9,5762c-305-23.9-539.8-116.4-715.1-281.1c-178.9-168.2-278-403.1-278.5-657.7c0-135.7,43.2-268.4,129.6-397.5
		c136.7-204.3,350.2-324.8,627.2-353.8c91-9.1,454.4,1,467.1,13.2c2.5,2,112.8,436.6,111.3,438.1c-1,0.5-28.5-4.6-62-11.2
		c-87.4-17.8-172.3-24.4-272.9-21.3c-75.7,2-94,4.1-133.7,15.8c-73.2,21.9-120.5,49.8-170.8,99.6c-71.7,70.7-96.1,134.2-96.1,251.6
		c0,225.7,131.1,407.1,346.6,479.8c81.3,27.4,124,33.5,237.9,33.5c117.4,0,174.3-8.6,270.9-40.2c28.5-9.7,51.8-16.8,52.4-16.3
		c5.1,8.6,102.2,392.9,99.6,395.4c-5.1,4.6-186,33-270.4,42.2C-1358.5,5759.9-1577.6,5766-1630.9,5762z"/>
	<path d="M4384.5,5744.2c-312.1-13.7-542.3-90-672.5-221.6c-62-62.5-100.6-129.1-123.5-211.4c-17.8-63-22.4-176.4-10.2-229.7
		c13.7-57.4,40.2-105.2,86.4-153.5c54.4-57.9,115.4-97.1,267.9-173.3c167.7-83.9,196.7-106.2,201.8-158.6
		c7.1-75.2-50.3-135.7-155-163.2c-93.5-24.9-354.3-14.2-519.5,21.3c-36.6,8.1-48.8,9.1-51.3,4.6c-6.1-10.2-94-364.9-91-368
		c4.1-4.1,91-17.3,157.1-23.4c89.5-8.6,421.4-12.2,508.3-5.6c338.5,26.9,576.4,127.1,700.9,294.8c32,43.2,68.6,118.4,82.3,170.8
		c9.1,33.5,11.2,55.4,11.7,127.1c0.5,98.1-3.6,116.9-39.1,177.4c-44.7,77.8-122.5,136.2-283.1,215.5
		c-128.1,63-171.8,87.9-203.3,116.4c-31.5,28.5-45.7,54.9-45.7,84.9c0,29.5,7.1,47.3,26.9,68.1c39.6,41.7,99.1,56.9,229.7,60.5
		c106.7,3,188.1-4.6,295.3-26.4c32.5-7.1,60.5-11.7,62-10.7c5.6,6.1,92.5,366,88.9,369c-4.6,4.1-159.6,22.9-245.5,30
		C4569,5747.2,4479.1,5748.7,4384.5,5744.2z"/>
	<path d="M9134.4,5735c-35.6-16.8-69.1-50.8-84.9-85.9c-16.8-36.6-15.8-100.6,2-138.8c7.1-16.3,22.9-38.6,34.6-50.3
		c33.5-33.5,70.1-48.3,122-48.3c37.1,0,47.3,2,72.2,14.2c35.1,17.3,65.6,46.8,81.3,78.8c9.1,18.3,12.2,34.6,13.2,70.7
		c1.5,41.2,0.5,50.3-10.7,74.2c-17.3,38.1-44.7,66.6-80.8,84.9c-27.4,13.2-36.1,15.2-74.7,15.2
		C9171,5749.8,9160.3,5747.7,9134.4,5735z M9265,5712.1c46.8-22.9,80.3-77.8,80.3-132.2c0-104.7-104.2-172.8-195.7-128.1
		c-29.5,14.7-47.3,32.5-65.1,66.1c-15.8,29.5-15.8,98.1,0,127.6c14.2,26.9,44.7,55.4,72.7,68.6
		C9185.2,5726.9,9236.1,5726.4,9265,5712.1z"/>
	<path d="M9161.3,5675l-14.2-2v-96.6v-96.1h15.2h15.2v43.2v43.7l19.3-3.6c28-5.1,35.6-10.2,39.1-28.5c10.7-52.9,11.7-54.9,31-54.9
		c16.3,0,17.8,1,14.2,11.7c-2,6.1-6.6,23.9-10.2,39.1c-3.6,16.3-10.7,31.5-17.3,36.6l-10.7,8.6l10.7,5.6
		c30.5,16.3,29.5,68.6-1.5,84.4C9236.1,5675,9186.8,5679.6,9161.3,5675z"/>
	<path d="M-756.7,5703c-1-3.6-91.5-363.4-200.8-799.5c-109.3-436.1-199.8-797-201.3-801.6c-2.5-8.6,13.7-9.1,291.2-9.1h294.3
		l78.8,314.1l79.3,313.6l193.7,1.5c182.5,1,194.2,0.5,194.2-7.6c0-5.1-34.1-146.9-75.7-315.1l-75.2-306.5h278.5h278.5l5.1,19.3
		c19.8,76.8,402,1591.4,402,1594c0,1.5-125.5,3-279.6,3H226.8l-3-13.7c-2-8.1-36.1-139.8-75.2-293.8L76.4,5122l-196.7-1.5
		c-147.9-1-196.7,0.5-196.7,4.6c0,3.6,33,135.2,73.7,292.8c40.7,157.1,73.7,287.2,73.7,288.7c0,1.5-131.6,2.5-292.3,2.5
		C-691.6,5709.1-755.2,5707.6-756.7,5703z"/>
	<path d="M950.6,5238.9c-65.1-258.7-115.4-468.6-111.8-466.1c22.9,17.8,1150.7,924.1,1156.8,929.1c6.1,6.1-67.1,7.1-460,7.1H1068
		L950.6,5238.9z"/>
	<path d="M3140.8,5593.2c-171.3-63.5-313.6-117.9-316.1-120.5c-4.1-4.6-346.1-1361.7-346.1-1374.4c0-4.1,75.7-5.1,288.2-4.6
		l288.7,1.5l199.2,795.5c109.8,437.6,200.8,800.5,202.3,807.1c1.5,6.1,1,11.2-1,11.2C3453.4,5708.6,3312.1,5656.7,3140.8,5593.2z"/>
	<path d="M5083.9,5527.6c-24.9-100.1-46.3-185-47.8-188.1c-1.5-5.1,40.2-6.6,199.2-6.6c156.5,0,201.3-1.5,201.3-6.1
		c0-3.6-70.7-281.6-157.6-617.6c-86.4-336-157.6-612.5-157.6-614s129.6-2.5,288.7-2.5h288.2l155.5,619.1l155.5,618.6l225.2,2.5
		l225.7,2.5l43.7,172.8c24.4,95,45.7,178.9,47.8,187l3,13.7h-712.6h-713.1L5083.9,5527.6z"/>
	<path d="M6791.2,5703c-1-3.6-92.5-367.5-202.3-808.2l-200.8-802.1h289.2h288.7l5.1,19.3c2.5,10.2,94,374.1,203.3,808.2l197.7,788.8
		H7083C6855.8,5709.1,6792.8,5707.6,6791.2,5703z"/>
	<path d="M7650.2,5697.9c-1.5-6.6-93-370-202.8-808.2l-199.8-797h647h647l5.1,19.3c3,10.2,23.4,93,46.3,184
		c22.4,91,42.2,169.3,43.7,174.3c2.5,8.1-16.8,8.6-356.3,8.6c-339.5,0-358.8,0.5-356.3,9.1c1.5,4.6,13.2,50.8,25.9,102.7
		c12.7,51.8,26.9,106.2,31,121l7.6,26.4h301.4h301.4l44.7,176.9c24.4,97.1,45.7,179.4,47.3,183c1.5,4.6-60.5,6.1-301.4,6.1
		c-286.2,0-302.9,0.5-300.4,9.1c1.5,4.6,14.2,55.9,29,113.9l25.9,105.7l325.8,1l325.3,1.5l44.2,172.8c24.4,95,45.7,178.9,47.8,187
		l3,13.7h-615h-615L7650.2,5697.9z"/>
	<path d="M1684.1,5048.8c-471.7-178.4-859-325.8-860.5-327.3c-2-2-158.1-616.5-159.6-627.7c0-0.5,118.4-0.5,262.8,0l262.8,1.5
		l84.9,312.6l84.4,312.6h67.6h67.1l24.9-119.4c32.5-157.6,94.5-465.1,98.6-489l3-19.3h294.3c233.3,0,293.8,1.5,292.3,6.6
		c-5.6,15.2-111.8,379.2-130.1,445.3c-23.4,83.9-61,235.8-59,236.9c0.5,0.5,22.9,8.1,49.3,17.3c67.1,23.4,161.6,69.6,218.6,107.2
		c98.6,65.6,183,165.2,221.1,261.3c22.4,57.9,51.3,206.9,39.6,206.4C2544.1,5373.1,2155.7,5227.3,1684.1,5048.8z"/>
</g>
</svg>
